<svg xmlns="http://www.w3.org/2000/svg" viewBox="0 0 450 600">
    <rect class="backGroundProgPils" width="450" height="600" />

    <rect class="frame" x="80" y="100" width="120" height="120" />
    <rect class="picture1" x="90" y="110" width="100" height="100" />
    <rect class="picture2" x="100" y="120" width="80" height="80" />
    <circle class="picture3" cx="150" cy="150" r="13" width="25" height="60" />
    <circle class="picture3" cx="120" cy="180" r="13" width="25" height="60" />


    <rect class="computer" x="280" y="350" width="120" height="80" />
    <rect class="computer" x="335" y="420" width="10" height="80" />
    <rect class="screen" x="285" y="355" width="110" height="70" />

    <rect class="beer" x="240" y="400" width="26" height="60" />
    <circle class="beer" cx="253" cy="400" r="13" width="25" height="60" />
    <rect class="beer" x="249" y="370" width="8" height="20" />
    <ellipse class="beerLabelBorder" cx="253" cy="370" rx="6" ry="3"></ellipse>
    <rect class="beerLabelBorder" x="240" y="410" width="26" height="20"></rect>
    <rect class="beerLabel" x="242" y="412" width="22" height="16"></rect>
    <text x="242" y="426">ØL</text>


    <rect class="table" x="0" y="450" width="450" height="150" />
    <rect class="backGroundProgPils" x="20" y="470" width="410" height="150" />

</svg>